<svg width="256" height="256" viewBox="0 0 256 256" fill="none" xmlns="http://www.w3.org/2000/svg">
<rect width="256" height="256" fill="url(#paint0_linear_1_173)"/>
<rect x="58.092" y="59.574" width="13.496" height="13.496" stroke="#F8F8F8" stroke-width="0.2"/>
<rect x="112.076" y="59.574" width="13.496" height="13.496" stroke="#F8F8F8" stroke-width="0.2"/>
<rect x="71.588" y="59.574" width="13.496" height="13.496" stroke="#F8F8F8" stroke-width="0.2"/>
<rect x="125.572" y="59.574" width="13.496" height="13.496" stroke="#F8F8F8" stroke-width="0.2"/>
<rect x="85.084" y="59.574" width="13.496" height="13.496" stroke="#F8F8F8" stroke-width="0.2"/>
<rect x="139.068" y="59.574" width="13.496" height="13.496" stroke="#F8F8F8" stroke-width="0.2"/>
<rect x="98.58" y="59.574" width="13.496" height="13.496" stroke="#F8F8F8" stroke-width="0.2"/>
<rect x="152.564" y="59.574" width="13.496" height="13.496" stroke="#F8F8F8" stroke-width="0.2"/>
<rect x="167.024" y="59.574" width="13.496" height="13.496" stroke="#F8F8F8" stroke-width="0.2"/>
<rect x="179.556" y="59.574" width="13.496" height="13.496" stroke="#F8F8F8" stroke-width="0.2"/>
<rect x="58.092" y="73.07" width="13.496" height="13.496" stroke="#F8F8F8" stroke-width="0.2"/>
<rect x="58.092" y="86.566" width="13.496" height="13.496" stroke="#F8F8F8" stroke-width="0.2"/>
<rect x="58.092" y="100.062" width="13.496" height="13.496" stroke="#F8F8F8" stroke-width="0.2"/>
<rect x="58.092" y="113.558" width="13.496" height="13.496" stroke="#F8F8F8" stroke-width="0.2"/>
<rect x="58.092" y="127.054" width="13.496" height="13.496" stroke="#F8F8F8" stroke-width="0.2"/>
<rect x="71.588" y="86.566" width="13.496" height="13.496" stroke="#F8F8F8" stroke-width="0.2"/>
<rect x="71.588" y="100.062" width="13.496" height="13.496" stroke="#F8F8F8" stroke-width="0.2"/>
<rect x="71.588" y="113.558" width="13.496" height="13.496" stroke="#F8F8F8" stroke-width="0.2"/>
<rect x="71.588" y="127.054" width="13.496" height="13.496" stroke="#F8F8F8" stroke-width="0.2"/>
<rect x="71.588" y="140.55" width="13.496" height="13.496" stroke="#F8F8F8" stroke-width="0.2"/>
<path d="M71.588 154.046H85.084V167.542L79.782 166.096L74.721 163.204L71.588 154.046Z" stroke="#F8F8F8" stroke-width="0.2"/>
<rect x="85.084" y="86.566" width="13.496" height="13.496" stroke="#F8F8F8" stroke-width="0.2"/>
<rect x="85.084" y="100.062" width="13.496" height="13.496" stroke="#F8F8F8" stroke-width="0.2"/>
<rect x="85.084" y="113.558" width="13.496" height="13.496" stroke="#F8F8F8" stroke-width="0.2"/>
<rect x="85.084" y="127.054" width="13.496" height="13.496" stroke="#F8F8F8" stroke-width="0.2"/>
<rect x="85.084" y="140.55" width="13.496" height="13.496" stroke="#F8F8F8" stroke-width="0.2"/>
<path d="M98.58 140.55H112.076V142.96H103.641V154.046H98.58V140.55Z" stroke="#F8F8F8" stroke-width="0.2"/>
<path d="M85.084 154.046H98.58V164.409L85.084 167.542V154.046Z" stroke="#F8F8F8" stroke-width="0.2"/>
<rect x="98.58" y="86.566" width="13.496" height="13.496" stroke="#F8F8F8" stroke-width="0.2"/>
<rect x="98.58" y="100.062" width="13.496" height="13.496" stroke="#F8F8F8" stroke-width="0.2"/>
<rect x="98.58" y="113.558" width="13.496" height="13.496" stroke="#F8F8F8" stroke-width="0.2"/>
<rect x="98.58" y="127.054" width="13.496" height="13.496" stroke="#F8F8F8" stroke-width="0.2"/>
<rect x="112.076" y="86.566" width="13.496" height="13.496" stroke="#F8F8F8" stroke-width="0.2"/>
<rect x="112.076" y="100.062" width="13.496" height="13.496" stroke="#F8F8F8" stroke-width="0.2"/>
<rect x="112.076" y="113.558" width="13.496" height="13.496" stroke="#F8F8F8" stroke-width="0.2"/>
<rect x="112.076" y="127.054" width="13.496" height="13.496" stroke="#F8F8F8" stroke-width="0.2"/>
<rect x="125.572" y="86.566" width="13.496" height="13.496" stroke="#F8F8F8" stroke-width="0.2"/>
<rect x="125.572" y="100.062" width="13.496" height="13.496" stroke="#F8F8F8" stroke-width="0.2"/>
<rect x="125.572" y="113.558" width="13.496" height="13.496" stroke="#F8F8F8" stroke-width="0.2"/>
<rect x="125.572" y="127.054" width="13.496" height="13.496" stroke="#F8F8F8" stroke-width="0.2"/>
<rect x="139.068" y="86.566" width="13.496" height="13.496" stroke="#F8F8F8" stroke-width="0.2"/>
<rect x="139.068" y="100.062" width="13.496" height="13.496" stroke="#F8F8F8" stroke-width="0.2"/>
<rect x="139.068" y="113.558" width="13.496" height="13.496" stroke="#F8F8F8" stroke-width="0.2"/>
<rect x="139.068" y="127.054" width="13.496" height="13.496" stroke="#F8F8F8" stroke-width="0.2"/>
<rect x="152.564" y="86.566" width="13.496" height="13.496" stroke="#F8F8F8" stroke-width="0.2"/>
<rect x="152.564" y="100.062" width="13.496" height="13.496" stroke="#F8F8F8" stroke-width="0.2"/>
<rect x="152.564" y="113.558" width="13.496" height="13.496" stroke="#F8F8F8" stroke-width="0.2"/>
<rect x="152.564" y="127.054" width="13.496" height="13.496" stroke="#F8F8F8" stroke-width="0.2"/>
<rect x="166.06" y="86.566" width="13.496" height="13.496" stroke="#F8F8F8" stroke-width="0.2"/>
<rect x="166.06" y="100.062" width="13.496" height="13.496" stroke="#F8F8F8" stroke-width="0.2"/>
<rect x="166.06" y="113.558" width="13.496" height="13.496" stroke="#F8F8F8" stroke-width="0.2"/>
<rect x="166.06" y="127.054" width="13.496" height="13.496" stroke="#F8F8F8" stroke-width="0.2"/>
<rect x="179.556" y="86.566" width="13.496" height="13.496" stroke="#F8F8F8" stroke-width="0.2"/>
<rect x="179.556" y="100.062" width="13.496" height="13.496" stroke="#F8F8F8" stroke-width="0.2"/>
<rect x="179.556" y="113.558" width="13.496" height="13.496" stroke="#F8F8F8" stroke-width="0.2"/>
<rect x="179.556" y="127.054" width="13.496" height="13.496" stroke="#F8F8F8" stroke-width="0.2"/>
<rect x="71.588" y="73.07" width="13.496" height="13.496" stroke="#F8F8F8" stroke-width="0.2"/>
<rect x="85.084" y="73.07" width="13.496" height="13.496" stroke="#F8F8F8" stroke-width="0.2"/>
<rect x="98.58" y="73.07" width="13.496" height="13.496" stroke="#F8F8F8" stroke-width="0.2"/>
<rect x="112.076" y="73.07" width="13.496" height="13.496" stroke="#F8F8F8" stroke-width="0.2"/>
<rect x="125.572" y="73.07" width="13.496" height="13.496" stroke="#F8F8F8" stroke-width="0.2"/>
<rect x="139.068" y="73.07" width="13.496" height="13.496" stroke="#F8F8F8" stroke-width="0.2"/>
<rect x="152.564" y="73.07" width="13.496" height="13.496" stroke="#F8F8F8" stroke-width="0.2"/>
<rect x="166.06" y="73.07" width="13.496" height="13.496" stroke="#F8F8F8" stroke-width="0.2"/>
<rect x="179.556" y="73.07" width="13.496" height="13.496" stroke="#F8F8F8" stroke-width="0.2"/>
<mask id="mask0_1_173" style="mask-type:luminance" maskUnits="userSpaceOnUse" x="16" y="175" width="222" height="44">
<path d="M237.717 175.093H16.64V218.152H237.717V175.093Z" fill="white"/>
</mask>
<g mask="url(#mask0_1_173)">
<path d="M20.4237 184.703H30.9273C33.4979 184.703 35.7774 185.202 37.7656 186.199C39.7589 187.198 41.3053 188.606 42.4049 190.426C43.5019 192.249 44.0517 194.35 44.0517 196.733C44.0517 199.11 43.5019 201.209 42.4049 203.029C41.3053 204.851 39.7589 206.26 37.7656 207.256C35.7774 208.255 33.4979 208.753 30.9273 208.753H20.4237V184.703ZM30.7264 204.977C32.4862 204.977 34.0352 204.64 35.3757 203.963C36.7213 203.287 37.7506 202.326 38.4686 201.081C39.1916 199.831 39.5531 198.379 39.5531 196.733C39.5531 195.081 39.1916 193.63 38.4686 192.385C37.7506 191.134 36.7213 190.173 35.3757 189.503C34.0352 188.827 32.4862 188.488 30.7264 188.488H24.8822V204.977H30.7264Z" fill="white"/>
<path d="M64.5924 199.685C64.5924 199.981 64.5673 200.403 64.5221 200.95H50.1324C50.3784 202.303 51.0361 203.375 52.1006 204.163C53.165 204.954 54.4855 205.348 56.067 205.348C58.0879 205.348 59.7523 204.686 61.0577 203.36L63.3573 206.001C62.5339 206.985 61.4895 207.733 60.2243 208.24C58.964 208.742 57.5457 208.994 55.9666 208.994C53.9507 208.994 52.1759 208.592 50.6445 207.789C49.1107 206.985 47.9257 205.871 47.0898 204.445C46.2513 203.014 45.8346 201.392 45.8346 199.584C45.8346 197.797 46.2387 196.188 47.0496 194.754C47.8655 193.323 48.9927 192.209 50.4336 191.411C51.8796 190.607 53.5064 190.206 55.3139 190.206C57.1013 190.206 58.6979 190.602 60.1038 191.39C61.5146 192.181 62.6167 193.293 63.4075 194.724C64.1958 196.15 64.5924 197.805 64.5924 199.685ZM55.3139 193.64C53.9407 193.64 52.7784 194.049 51.8294 194.865C50.878 195.676 50.2981 196.753 50.0922 198.098H60.5054C60.3172 196.773 59.7548 195.698 58.8184 194.875C57.8795 194.052 56.7122 193.64 55.3139 193.64Z" fill="white"/>
<path d="M73.3467 208.994C71.8605 208.994 70.4044 208.798 68.9785 208.411C67.5576 208.024 66.4279 207.532 65.5844 206.935L67.2313 203.671C68.0547 204.221 69.0438 204.663 70.2036 204.997C71.3609 205.326 72.4981 205.489 73.6178 205.489C76.1884 205.489 77.4738 204.814 77.4738 203.461C77.4738 202.818 77.1449 202.374 76.4897 202.125C75.8395 201.871 74.7927 201.63 73.3467 201.402C71.8329 201.176 70.6003 200.915 69.6513 200.619C68.6999 200.318 67.8765 199.795 67.1811 199.052C66.4832 198.304 66.1367 197.265 66.1367 195.939C66.1367 194.2 66.8622 192.811 68.3158 191.772C69.7668 190.728 71.7325 190.206 74.2102 190.206C75.468 190.206 76.7257 190.351 77.9859 190.637C79.2436 190.919 80.2754 191.3 81.0787 191.782L79.4319 195.046C77.8704 194.129 76.1182 193.67 74.1701 193.67C72.9098 193.67 71.9534 193.861 71.2982 194.242C70.648 194.619 70.3241 195.113 70.3241 195.728C70.3241 196.419 70.6705 196.908 71.3684 197.195C72.0714 197.483 73.1559 197.752 74.6219 197.998C76.088 198.226 77.288 198.49 78.2269 198.791C79.1633 199.087 79.9691 199.589 80.6469 200.297C81.3222 201.008 81.6611 202.015 81.6611 203.32C81.6611 205.042 80.913 206.418 79.4219 207.447C77.9357 208.479 75.9098 208.994 73.3467 208.994Z" fill="white"/>
<path d="M84.3405 190.406H88.6283V208.753H84.3405V190.406ZM86.4994 187.384C85.7162 187.384 85.0585 187.14 84.5313 186.651C84.0091 186.156 83.748 185.544 83.748 184.813C83.748 184.078 84.0091 183.465 84.5313 182.976C85.0585 182.481 85.7162 182.232 86.4994 182.232C87.2752 182.232 87.9253 182.468 88.4475 182.935C88.9747 183.405 89.2408 183.995 89.2408 184.703C89.2408 185.461 88.9822 186.096 88.4676 186.611C87.9505 187.128 87.2952 187.384 86.4994 187.384Z" fill="white"/>
<path d="M111.441 190.406V205.971C111.441 212.43 108.14 215.661 101.54 215.661C99.7777 215.661 98.1083 215.435 96.5293 214.988C94.9477 214.539 93.6423 213.894 92.613 213.05L94.541 209.817C95.3368 210.48 96.3485 211.012 97.5736 211.414C98.7987 211.815 100.039 212.016 101.299 212.016C103.32 212.016 104.799 211.557 105.737 210.64C106.674 209.722 107.143 208.328 107.143 206.453V205.489C106.413 206.292 105.519 206.902 104.462 207.317C103.41 207.726 102.256 207.929 100.998 207.929C99.2556 207.929 97.679 207.558 96.2682 206.814C94.8623 206.071 93.7502 205.025 92.9343 203.671C92.1235 202.321 91.7193 200.774 91.7193 199.032C91.7193 197.292 92.1235 195.754 92.9343 194.413C93.7502 193.075 94.8623 192.041 96.2682 191.31C97.679 190.575 99.2556 190.206 100.998 190.206C102.323 190.206 103.528 190.424 104.613 190.858C105.702 191.295 106.616 191.958 107.354 192.847V190.406H111.441ZM101.651 204.284C103.277 204.284 104.608 203.799 105.647 202.828C106.691 201.851 107.214 200.586 107.214 199.032C107.214 197.501 106.691 196.251 105.647 195.287C104.608 194.323 103.277 193.841 101.651 193.841C99.9961 193.841 98.648 194.323 97.6037 195.287C96.5644 196.251 96.0473 197.501 96.0473 199.032C96.0473 200.586 96.5644 201.851 97.6037 202.828C98.648 203.799 99.9961 204.284 101.651 204.284Z" fill="white"/>
<path d="M126.444 190.206C128.759 190.206 130.614 190.883 132.007 192.234C133.405 193.58 134.106 195.583 134.106 198.239V208.753H129.808V198.791C129.808 197.185 129.429 195.977 128.673 195.166C127.923 194.358 126.848 193.951 125.45 193.951C123.868 193.951 122.621 194.428 121.704 195.377C120.786 196.321 120.329 197.687 120.329 199.474V208.753H116.041V190.406H120.128V192.776C120.836 191.933 121.727 191.295 122.799 190.858C123.876 190.424 125.091 190.206 126.444 190.206Z" fill="white"/>
<path d="M146.4 209.094C144.544 209.094 142.749 208.833 141.017 208.311C139.29 207.783 137.924 207.083 136.92 206.212L138.467 202.738C139.451 203.521 140.656 204.161 142.082 204.656C143.513 205.145 144.954 205.389 146.4 205.389C148.187 205.389 149.517 205.105 150.396 204.535C151.28 203.96 151.722 203.199 151.722 202.256C151.722 201.573 151.473 201.008 150.979 200.559C150.489 200.112 149.866 199.763 149.111 199.514C148.353 199.261 147.323 198.972 146.018 198.651C144.19 198.216 142.707 197.782 141.57 197.345C140.437 196.911 139.463 196.231 138.647 195.307C137.837 194.378 137.432 193.123 137.432 191.541C137.432 190.216 137.794 189.011 138.517 187.926C139.24 186.837 140.327 185.968 141.78 185.325C143.231 184.683 145.014 184.361 147.123 184.361C148.589 184.361 150.03 184.547 151.451 184.914C152.869 185.283 154.094 185.807 155.126 186.49L153.72 189.965C152.661 189.342 151.561 188.875 150.416 188.559C149.271 188.237 148.159 188.077 147.082 188.077C145.32 188.077 144.01 188.375 143.146 188.97C142.287 189.56 141.861 190.351 141.861 191.34C141.861 192.023 142.104 192.583 142.594 193.017C143.088 193.454 143.713 193.798 144.472 194.052C145.227 194.3 146.259 194.584 147.564 194.905C149.352 195.322 150.818 195.754 151.963 196.2C153.107 196.642 154.084 197.323 154.895 198.239C155.711 199.158 156.12 200.395 156.12 201.954C156.12 203.28 155.758 204.482 155.035 205.559C154.317 206.639 153.228 207.497 151.762 208.14C150.296 208.775 148.508 209.094 146.4 209.094Z" fill="white"/>
<path d="M176.351 199.685C176.351 199.981 176.326 200.403 176.281 200.95H161.891C162.137 202.303 162.795 203.375 163.859 204.163C164.924 204.954 166.244 205.348 167.826 205.348C169.847 205.348 171.511 204.686 172.817 203.36L175.116 206.001C174.293 206.985 173.248 207.733 171.983 208.24C170.723 208.742 169.304 208.994 167.725 208.994C165.71 208.994 163.935 208.592 162.403 207.789C160.869 206.985 159.685 205.871 158.849 204.445C158.01 203.014 157.593 201.392 157.593 199.584C157.593 197.797 157.998 196.188 158.808 194.754C159.624 193.323 160.751 192.209 162.192 191.411C163.638 190.607 165.265 190.206 167.073 190.206C168.86 190.206 170.457 190.602 171.863 191.39C173.273 192.181 174.376 193.293 175.166 194.724C175.955 196.15 176.351 197.805 176.351 199.685ZM167.073 193.64C165.7 193.64 164.537 194.049 163.588 194.865C162.637 195.676 162.057 196.753 161.851 198.098H172.264C172.076 196.773 171.514 195.698 170.577 194.875C169.638 194.052 168.471 193.64 167.073 193.64Z" fill="white"/>
<path d="M190.468 207.758C189.958 208.168 189.343 208.476 188.62 208.682C187.902 208.888 187.144 208.994 186.341 208.994C184.325 208.994 182.768 208.469 181.671 207.417C180.572 206.36 180.024 204.824 180.024 202.808V193.981H177.002V190.547H180.024V186.36H184.312V190.547H189.233V193.981H184.312V202.707C184.312 203.599 184.528 204.281 184.965 204.756C185.399 205.225 186.029 205.459 186.853 205.459C187.817 205.459 188.62 205.205 189.263 204.696L190.468 207.758Z" fill="white"/>
<path d="M209.804 196.451H214.031V206.041C212.791 207.025 211.345 207.783 209.693 208.311C208.046 208.833 206.352 209.094 204.612 209.094C202.162 209.094 199.953 208.562 197.985 207.497C196.016 206.433 194.47 204.964 193.345 203.089C192.226 201.209 191.668 199.09 191.668 196.733C191.668 194.37 192.226 192.252 193.345 190.376C194.47 188.496 196.021 187.022 198.005 185.958C199.985 184.894 202.212 184.361 204.682 184.361C206.696 184.361 208.528 184.698 210.175 185.365C211.827 186.028 213.213 187 214.332 188.278L211.521 191.029C209.686 189.196 207.476 188.278 204.893 188.278C203.191 188.278 201.682 188.634 200.364 189.342C199.052 190.052 198.025 191.049 197.282 192.334C196.539 193.615 196.167 195.081 196.167 196.733C196.167 198.334 196.539 199.775 197.282 201.061C198.025 202.341 199.052 203.348 200.364 204.083C201.682 204.814 203.179 205.178 204.853 205.178C206.733 205.178 208.383 204.766 209.804 203.943V196.451Z" fill="white"/>
<path d="M226.702 208.994C224.839 208.994 223.168 208.592 221.681 207.789C220.195 206.985 219.033 205.871 218.197 204.445C217.358 203.014 216.942 201.392 216.942 199.584C216.942 197.772 217.358 196.155 218.197 194.734C219.033 193.316 220.195 192.209 221.681 191.411C223.168 190.607 224.839 190.206 226.702 190.206C228.575 190.206 230.257 190.607 231.743 191.411C233.234 192.209 234.399 193.316 235.238 194.734C236.074 196.155 236.493 197.772 236.493 199.584C236.493 201.392 236.074 203.014 235.238 204.445C234.399 205.871 233.234 206.985 231.743 207.789C230.257 208.592 228.575 208.994 226.702 208.994ZM226.702 205.318C228.281 205.318 229.587 204.794 230.618 203.742C231.648 202.685 232.165 201.299 232.165 199.584C232.165 197.865 231.648 196.479 230.618 195.427C229.587 194.37 228.281 193.841 226.702 193.841C225.121 193.841 223.82 194.37 222.796 195.427C221.777 196.479 221.27 197.865 221.27 199.584C221.27 201.299 221.777 202.685 222.796 203.742C223.82 204.794 225.121 205.318 226.702 205.318Z" fill="white"/>
</g>
<path d="M86.2765 116.437C84.9811 116.437 83.9242 117.494 83.9242 118.79V130.548C83.9242 131.846 84.9811 132.901 86.2765 132.901C87.5718 132.901 88.6287 131.846 88.6287 130.548V118.79C88.6287 117.494 87.5718 116.437 86.2765 116.437Z" fill="white"/>
<mask id="mask1_1_173" style="mask-type:luminance" maskUnits="userSpaceOnUse" x="53" y="29" width="142" height="142">
<path d="M53.3498 29.4138H194.576V170.595H53.3498V29.4138Z" fill="white"/>
</mask>
<g mask="url(#mask1_1_173)">
<path d="M189.766 139.958H105.092V123.494C105.092 113.121 96.6495 104.679 86.2764 104.679C75.9034 104.679 67.4609 113.121 67.4609 123.494V139.958H58.0518V76.454H72.1654C73.4608 76.454 74.5177 75.3971 74.5177 74.1018V59.9882H166.246V92.9173C166.246 92.955 166.263 92.9826 166.263 93.0102C166.273 93.2839 166.319 93.5525 166.429 93.8085C166.429 93.8186 166.429 93.8261 166.439 93.8362C166.439 93.8462 166.439 93.8462 166.439 93.8462L173.493 110.31C173.862 111.173 174.716 111.733 175.652 111.733C176.591 111.733 177.445 111.173 177.811 110.31L184.868 93.8462C184.868 93.8462 184.868 93.8462 184.868 93.8362C184.878 93.8261 184.878 93.8186 184.878 93.8085C184.989 93.5525 185.034 93.2839 185.044 93.0102C185.044 92.9826 185.061 92.955 185.061 92.9173V59.9882H189.766V139.958ZM100.39 151.719C100.39 159.499 94.0587 165.83 86.2764 165.83C78.4942 165.83 72.1654 159.499 72.1654 151.719V123.494C72.1654 115.712 78.4942 109.381 86.2764 109.381C94.0587 109.381 100.39 115.712 100.39 123.494V151.719ZM69.8131 63.3145V71.7495H61.3781L69.8131 63.3145ZM66.4868 59.9882L58.0518 68.4232V59.9882H66.4868ZM170.95 34.1184H180.357V38.8204H170.95V34.1184ZM179.144 95.2696L175.652 103.411L172.163 95.2696H179.144ZM180.357 90.5651H170.95V43.5249H180.357V90.5651ZM192.118 55.2862H185.061V31.7661C185.061 30.4707 184.004 29.4138 182.709 29.4138H168.598C167.303 29.4138 166.246 30.4707 166.246 31.7661V55.2862H55.7021C54.4067 55.2862 53.3498 56.3431 53.3498 57.6385V142.31C53.3498 143.605 54.4067 144.662 55.7021 144.662H67.4609V151.719C67.4609 162.089 75.9034 170.534 86.2764 170.534C96.6495 170.534 105.092 162.089 105.092 151.719V144.662H192.118C193.413 144.662 194.47 143.605 194.47 142.31V57.6385C194.47 56.3431 193.413 55.2862 192.118 55.2862Z" fill="white"/>
</g>
<path d="M182.709 130.548H178.005C176.709 130.548 175.652 131.605 175.652 132.901C175.652 134.196 176.709 135.253 178.005 135.253H182.709C184.004 135.253 185.061 134.196 185.061 132.901C185.061 131.605 184.004 130.548 182.709 130.548Z" fill="white"/>
<path d="M168.598 130.548H163.894C162.598 130.548 161.541 131.605 161.541 132.901C161.541 134.196 162.598 135.253 163.894 135.253H168.598C169.893 135.253 170.95 134.196 170.95 132.901C170.95 131.605 169.893 130.548 168.598 130.548Z" fill="white"/>
<path d="M149.248 72.6131C148.422 71.6115 146.943 71.4558 145.942 72.2817L121.631 92.1743L99.6093 72.3571C98.7984 71.6215 97.5959 71.5462 96.6947 72.1637L66.1203 93.3316C65.0534 94.0747 64.7873 95.5357 65.5228 96.6102C65.9822 97.2629 66.7178 97.6219 67.4609 97.6219C67.9303 97.6219 68.3897 97.4838 68.8014 97.2077L97.8444 77.0967L119.986 97.0144C120.85 97.7951 122.145 97.8227 123.047 97.0897L148.919 75.9218C149.918 75.1034 150.076 73.6148 149.248 72.6131Z" fill="white"/>
<path d="M132.857 121.142L140.373 109.115L147.89 121.142H132.857ZM142.367 103.428C141.503 102.06 139.244 102.06 138.38 103.428L126.619 122.244C126.17 122.97 126.142 123.888 126.556 124.634C126.968 125.377 127.759 125.846 128.612 125.846H152.132C152.988 125.846 153.779 125.377 154.191 124.634C154.605 123.888 154.577 122.97 154.128 122.244L142.367 103.428Z" fill="white"/>
<defs>
<linearGradient id="paint0_linear_1_173" x1="128" y1="4.12762e-06" x2="266.5" y2="285" gradientUnits="userSpaceOnUse">
<stop stop-color="#111111"/>
<stop offset="1" stop-color="#222222"/>
</linearGradient>
</defs>
</svg>
